Format : AVI
Format/Info : Audio Video Interleave
File size : 1.07 GiB
Duration : 1h 23mn
Overall bit rate : 1 828 Kbps
Writing library : VirtualDub build 32839/release

Video
ID : 0
Format : MPEG-4 Visual
Format profile : Advanced Simple@L5
Format settings, BVOP : 2
Format settings, QPel : No
Format settings, GMC : No warppoints
Format settings, Matrix : Default (H.263)
Muxing mode : Packed bitstream
Codec ID : XVID
Codec ID/Hint : XviD
Duration : 1h 23mn
Bit rate : 1 624 Kbps
Width : 720 pixels
Height : 400 pixels
Display aspect ratio : 16:9
Frame rate : 29.970 fps
Color space : YUV
Chroma subsampling : 4:2:0
Bit depth : 8 bits
Scan type : Progressive
Compression mode : Lossy
Bits/(Pixel*Frame) : 0.188
Stream size : 971 MiB (89%)
Writing library : XviD 63

Audio
ID : 1
Format : AC-3
Format/Info : Audio Coding 3
Mode extension : CM (complete main)
Codec ID : 2000
Duration : 1h 23mn
Bit rate mode : Constant
Bit rate : 192 Kbps
Channel(s) : 2 channels
Channel positions : Front: L R
Sampling rate : 48.0 KHz
Bit depth : 16 bits
Compression mode : Lossy
Stream size : 115 MiB (11%)
Alignment : Aligned on interleaves
Interleave, duration : 33 ms (1.00 video frame)
Interleave, preload duration : 512 ms












Storyline

Mia Williams, raised on the family Bed & Breakfast by Sara, a loving single mom grows up believing her father was lost, M.I.A., in the Gulf War. A tragic accident results in the sudden death of Sara and Mia finds herself alone to care for the B&B while attending college. Daniel Williams, a hard-edged businessman from New York, arrives at the B&B and Mia suspects he may be her lost father. The townsfolk believe he may be responsible for Sara's death. As events unfold, Daniel clears his name and finds acceptance from the community and Mia finds a father at last.













Release date June 7th 2011

Source Used

Secret at Arrow Lake 2009 NTSC DVDR-STOCK ........... Thanks


Not expecting many to want this but was asked so here it is



Greetz to IMAGiNE,Flawl3ss,DiLLoN,BDK,NOiR,TOXiC,THC,Ez,Rx,Boobyblue,TaRiQ786,LKRG,EP1C
